<?xml version="1.0" standalone="no"?><!DOCTYPE svg PUBLIC "-//W3C//DTD SVG 1.1//EN" "http://www.w3.org/Graphics/SVG/1.1/DTD/svg11.dtd"><svg t="1746772084084" class="icon" viewBox="0 0 1024 1024" version="1.1" xmlns="http://www.w3.org/2000/svg" p-id="4770" xmlns:xlink="http://www.w3.org/1999/xlink" width="200" height="200"><path d="M783.68 288.256h-421.973333a71.296 71.296 0 0 0-71.253334 71.338667V781.44a71.296 71.296 0 0 0 71.253334 71.338667h421.973333a71.296 71.296 0 0 0 71.253333-71.338667V359.594667a71.296 71.296 0 0 0-71.253333-71.338667z m23.765333 493.866667c0 13.141333-10.645333 23.786667-23.765333 23.786666h-421.973333a23.765333 23.765333 0 0 1-23.765334-23.786666V359.594667c0-13.12 10.645333-23.765333 23.765334-23.765334h421.973333c13.12 0 23.765333 10.645333 23.765333 23.765334v422.528z" fill="currentColor" p-id="4771"></path><path d="M254.869333 688.085333h-40.064a19.072 19.072 0 0 1-18.88-19.264v-431.36c0-10.645333 8.448-19.264 18.88-19.264h422.826667c10.453333 0 18.986667 8.576 19.093333 19.264v19.242667c0 13.12 10.453333 23.765333 23.296 23.765333 12.864 0 23.296-10.645333 23.296-23.765333v-19.242667C703.189333 200.533333 673.813333 170.666667 637.610667 170.666667h-422.826667C178.666667 170.666667 149.333333 200.576 149.333333 237.44v431.381333c0 36.906667 29.312 66.773333 65.472 66.773334h40.064c12.864 0 23.296-10.624 23.296-23.744 0-13.141333-10.432-23.765333-23.296-23.765334z m459.882667 23.04H413.973333c-12.864 0-23.296 10.666667-23.296 23.765334 0 13.141333 10.453333 23.765333 23.296 23.765333h300.778667c12.864 0 23.296-10.624 23.296-23.765333 0-13.12-10.453333-23.765333-23.296-23.765334z m-300.778667-60.373333h230.186667c12.864 0 23.296-10.624 23.296-23.765333 0-13.12-10.453333-23.765333-23.296-23.765334h-230.186667c-12.864 0-23.296 10.666667-23.296 23.765334 0 13.141333 10.453333 23.786667 23.296 23.786666z m341.76-257.856a17.237333 17.237333 0 0 0-24.682666 0l-35.882667 36.586667-35.882667-36.586667a17.258667 17.258667 0 0 0-17.088-5.12 17.642667 17.642667 0 0 0-12.608 12.864 18.048 18.048 0 0 0 5.013334 17.450667l35.882666 36.586666-35.882666 36.608a18.090667 18.090667 0 0 0 0 25.194667c3.328 3.264 7.722667 5.12 12.352 5.226667a17.28 17.28 0 0 0 12.330666-5.226667l35.882667-36.608 35.882667 36.608a17.237333 17.237333 0 0 0 24.682666 0 18.090667 18.090667 0 0 0 0-25.194667l-35.861333-36.608 35.861333-36.586666a18.090667 18.090667 0 0 0 0-25.194667z" fill="currentColor" p-id="4772"></path></svg>