<?xml version="1.0" standalone="no"?><!DOCTYPE svg PUBLIC "-//W3C//DTD SVG 1.1//EN" "http://www.w3.org/Graphics/SVG/1.1/DTD/svg11.dtd"><svg t="1746772513214" class="icon" viewBox="0 0 1146 1024" version="1.1" xmlns="http://www.w3.org/2000/svg" p-id="4915" xmlns:xlink="http://www.w3.org/1999/xlink" width="223.828125" height="200"><path d="M1130.947044 850.41899L673.405304 57.954916a115.498134 115.498134 0 0 0-200.285781 0L15.577783 850.41899A115.720673 115.720673 0 0 0 115.720673 1024h915.30602a115.720673 115.720673 0 0 0 99.920351-173.58101zM528.086843 282.94261a44.507951 44.507951 0 0 1 90.351141 0v347.162021a44.507951 44.507951 0 1 1-90.351141 0z m44.507951 575.042731a68.097166 68.097166 0 1 1 68.097166-68.097165 68.097166 68.097166 0 0 1-67.429547 68.097165z" fill="#f4ea2a" p-id="4916"></path></svg>