<svg xmlns="http://www.w3.org/2000/svg" viewBox="0 0 16 17" class="design-iconfont">
  <path d="M4,8 L12,8 L12,5.33333333 L9.33333333,5.33333333 L9.33333333,2.66666667 L4,2.66666667 L4,8 Z M2.66666667,8 L2.66666667,1.99666667 C2.66666667,1.63 2.96333333,1.33333333 3.33066667,1.33333333 L10,1.33333333 L13.3333333,4.66666667 L13.3333333,8 L14.6666667,8 L14.6666667,9.33333333 L1.33333333,9.33333333 L1.33333333,8 L2.66666667,8 Z M2,10.6666667 L3.33333333,10.6666667 L3.33333333,14.6666667 L2,14.6666667 L2,10.6666667 Z M12.6666667,10.6666667 L14,10.6666667 L14,14.6666667 L12.6666667,14.6666667 L12.6666667,10.6666667 Z M10,10.6666667 L11.3333333,10.6666667 L11.3333333,14.6666667 L10,14.6666667 L10,10.6666667 Z M7.33333333,10.6666667 L8.66666667,10.6666667 L8.66666667,14.6666667 L7.33333333,14.6666667 L7.33333333,10.6666667 Z M4.66666667,10.6666667 L6,10.6666667 L6,14.6666667 L4.66666667,14.6666667 L4.66666667,10.6666667 Z" fill="" fill-rule="nonzero" transform="translate(0 .5)"/>
</svg>
